<svg width="16" height="16" viewBox="0 0 16 16" fill="none" xmlns="http://www.w3.org/2000/svg">
<g clip-path="url(#clip0_2007_10)">
<path d="M6.17408 1.18408C6.33163 0.831487 6.5879 0.532049 6.91193 0.32193C7.23596 0.111811 7.61389 0 8.00008 0C8.38627 0 8.76421 0.111811 9.08824 0.32193C9.41226 0.532049 9.66853 0.831487 9.82608 1.18408C10.1388 0.9571 10.5106 0.825575 10.8965 0.805412C11.2824 0.785248 11.6659 0.877309 12.0006 1.07046C12.3352 1.26362 12.6068 1.54959 12.7824 1.89381C12.958 2.23802 13.0302 2.62574 12.9901 3.01008C13.3744 2.97001 13.7621 3.04214 14.1064 3.21774C14.4506 3.39335 14.7365 3.66492 14.9297 3.9996C15.1229 4.33429 15.2149 4.71776 15.1947 5.10366C15.1746 5.48956 15.0431 5.86135 14.8161 6.17408C15.1687 6.33163 15.4681 6.5879 15.6782 6.91193C15.8884 7.23596 16.0002 7.61389 16.0002 8.00008C16.0002 8.38627 15.8884 8.76421 15.6782 9.08824C15.4681 9.41226 15.1687 9.66853 14.8161 9.82608C15.0431 10.1388 15.1746 10.5106 15.1947 10.8965C15.2149 11.2824 15.1229 11.6659 14.9297 12.0006C14.7365 12.3352 14.4506 12.6068 14.1064 12.7824C13.7621 12.958 13.3744 13.0302 12.9901 12.9901C13.0302 13.3744 12.958 13.7621 12.7824 14.1064C12.6068 14.4506 12.3352 14.7365 12.0006 14.9297C11.6659 15.1229 11.2824 15.2149 10.8965 15.1947C10.5106 15.1746 10.1388 15.0431 9.82608 14.8161C9.66853 15.1687 9.41226 15.4681 9.08824 15.6782C8.76421 15.8884 8.38627 16.0002 8.00008 16.0002C7.61389 16.0002 7.23596 15.8884 6.91193 15.6782C6.5879 15.4681 6.33163 15.1687 6.17408 14.8161C5.86135 15.0431 5.48956 15.1746 5.10366 15.1947C4.71776 15.2149 4.33429 15.1229 3.9996 14.9297C3.66492 14.7365 3.39335 14.4506 3.21774 14.1064C3.04214 13.7621 2.97001 13.3744 3.01008 12.9901C2.62574 13.0302 2.23802 12.958 1.89381 12.7824C1.54959 12.6068 1.26362 12.3352 1.07046 12.0006C0.877309 11.6659 0.785248 11.2824 0.805412 10.8965C0.825575 10.5106 0.9571 10.1388 1.18408 9.82608C0.831487 9.66853 0.532049 9.41226 0.32193 9.08824C0.111811 8.76421 0 8.38627 0 8.00008C0 7.61389 0.111811 7.23596 0.32193 6.91193C0.532049 6.5879 0.831487 6.33163 1.18408 6.17408C0.9571 5.86135 0.825575 5.48956 0.805412 5.10366C0.785248 4.71776 0.877309 4.33429 1.07046 3.9996C1.26362 3.66492 1.54959 3.39335 1.89381 3.21774C2.23802 3.04214 2.62574 2.97001 3.01008 3.01008C2.97001 2.62574 3.04214 2.23802 3.21774 1.89381C3.39335 1.54959 3.66492 1.26362 3.9996 1.07046C4.33429 0.877309 4.71776 0.785248 5.10366 0.805412C5.48956 0.825575 5.86135 0.9571 6.17408 1.18408ZM8.00008 1.00008C7.86636 1.00029 7.73405 1.02731 7.61096 1.07955C7.48787 1.13179 7.3765 1.20819 7.28346 1.30422C7.19041 1.40025 7.11756 1.51397 7.06923 1.63864C7.0209 1.76332 6.99807 1.89642 7.00208 2.03008L7.01208 2.12108C7.02341 2.19841 7.04141 2.29708 7.06608 2.41708C7.11508 2.65808 7.18808 2.95908 7.27908 3.30408C7.46108 3.99208 7.70708 4.81708 7.95508 5.61808L8.00008 5.76208L8.04508 5.61808C8.29308 4.81808 8.53908 3.99208 8.72108 3.30408C8.81208 2.95908 8.88508 2.65808 8.93408 2.41708C8.96044 2.2893 8.98179 2.16053 8.99808 2.03108L9.00008 2.00008C9.00008 1.73486 8.89472 1.48051 8.70719 1.29297C8.51965 1.10544 8.2653 1.00008 8.00008 1.00008ZM2.00008 9.00008L2.03008 8.99808L2.12108 8.98808C2.22027 8.97305 2.31898 8.95505 2.41708 8.93408C2.65808 8.88508 2.95908 8.81208 3.30408 8.72108C4.07979 8.51101 4.85128 8.28564 5.61808 8.04508L5.76208 8.00008L5.61808 7.95508C4.85128 7.71453 4.07979 7.48915 3.30408 7.27908C3.01037 7.20016 2.7146 7.12913 2.41708 7.06608C2.2893 7.03972 2.16053 7.01837 2.03108 7.00208L2.00008 7.00008C1.73486 7.00008 1.48051 7.10544 1.29297 7.29297C1.10544 7.48051 1.00008 7.73486 1.00008 8.00008C1.00008 8.2653 1.10544 8.51965 1.29297 8.70719C1.48051 8.89472 1.73486 9.00008 2.00008 9.00008ZM9.00008 14.0001L8.99808 13.9701C8.98179 13.8406 8.96044 13.7119 8.93408 13.5841C8.87154 13.2861 8.80052 12.99 8.72108 12.6961C8.51101 11.9204 8.28564 11.1489 8.04508 10.3821L8.00008 10.2381L7.95508 10.3821C7.70708 11.1821 7.46108 12.0081 7.27908 12.6961C7.18808 13.0411 7.11508 13.3421 7.06608 13.5831C7.03972 13.7109 7.01837 13.8396 7.00208 13.9691L7.00008 14.0001C7.00008 14.2653 7.10544 14.5197 7.29297 14.7072C7.48051 14.8947 7.73486 15.0001 8.00008 15.0001C8.2653 15.0001 8.51965 14.8947 8.70719 14.7072C8.89472 14.5197 9.00008 14.2653 9.00008 14.0001ZM3.30408 11.8661L3.32908 11.8491C3.43328 11.7704 3.53436 11.6877 3.63208 11.6011C3.81608 11.4371 4.04008 11.2241 4.29308 10.9721C4.86017 10.4025 5.41595 9.82167 5.96008 9.23008L6.06308 9.11908L5.91608 9.15208C5.13139 9.32729 4.35023 9.51799 3.57308 9.72408C3.22908 9.81708 2.93308 9.90408 2.69908 9.98208C2.57499 10.0233 2.45256 10.0693 2.33208 10.1201L2.30508 10.1341C2.19044 10.1993 2.08982 10.2865 2.00901 10.3907C1.92821 10.4949 1.86882 10.6141 1.83427 10.7414C1.79972 10.8687 1.79068 11.0015 1.80768 11.1323C1.82468 11.2631 1.86738 11.3892 1.93332 11.5034C1.99926 11.6176 2.08714 11.7177 2.1919 11.7978C2.29666 11.8779 2.41624 11.9365 2.54373 11.9702C2.67123 12.0039 2.80414 12.012 2.93481 11.9942C3.06547 11.9763 3.19131 11.9328 3.30508 11.8661H3.30408ZM4.50008 14.0621C4.72976 14.1947 5.00271 14.2306 5.25888 14.162C5.51505 14.0933 5.73347 13.9258 5.86608 13.6961L5.88008 13.6691C5.88941 13.6491 5.90141 13.6211 5.91608 13.5851C5.95291 13.4918 5.98693 13.3974 6.01808 13.3021C6.09608 13.0691 6.18308 12.7721 6.27608 12.4281C6.48217 11.6509 6.67287 10.8698 6.84808 10.0851L6.88108 9.93808L6.77108 10.0401C6.17915 10.5842 5.59804 11.14 5.02808 11.7071C4.81255 11.9214 4.60281 12.1415 4.39908 12.3671C4.31247 12.4651 4.22974 12.5665 4.15108 12.6711L4.13408 12.6961C4.00148 12.9258 3.96554 13.1987 4.03418 13.4549C4.10282 13.7111 4.27041 13.9295 4.50008 14.0621ZM13.6961 5.86608C13.9239 5.73253 14.0896 5.51429 14.1571 5.259C14.2246 5.0037 14.1884 4.73207 14.0564 4.50339C13.9243 4.2747 13.7072 4.10752 13.4523 4.03833C13.1975 3.96914 12.9256 4.00356 12.6961 4.13408L12.6711 4.15108C12.5669 4.22976 12.4658 4.31249 12.3681 4.39908C12.1422 4.6028 11.9217 4.81254 11.7071 5.02808C11.14 5.59771 10.5842 6.17849 10.0401 6.77008L9.93808 6.88108L10.0851 6.84808C10.8694 6.67286 11.6503 6.48216 12.4271 6.27608C12.7721 6.18308 13.0691 6.09608 13.3021 6.01808C13.4262 5.9769 13.5486 5.93086 13.6691 5.88008L13.6961 5.86608ZM11.5001 1.93808C11.2704 1.80548 10.9975 1.76954 10.7413 1.83818C10.4851 1.90682 10.2667 2.07441 10.1341 2.30408L10.1201 2.33108C10.1107 2.35108 10.0987 2.37908 10.0841 2.41508C10.0473 2.50837 10.0132 2.60275 9.98208 2.69808C9.90408 2.93108 9.81708 3.22808 9.72408 3.57308C9.518 4.3499 9.3273 5.13072 9.15208 5.91508L9.11908 6.06208L9.22908 5.96008C9.82101 5.41596 10.4021 4.86018 10.9721 4.29308C11.2241 4.04008 11.4371 3.81608 11.6011 3.63308C11.6877 3.53503 11.7704 3.43362 11.8491 3.32908L11.8661 3.30408C11.9987 3.0744 12.0346 2.80146 11.966 2.54528C11.8973 2.28911 11.7298 2.07069 11.5001 1.93808ZM14.0001 9.00008C14.2653 9.00008 14.5197 8.89472 14.7072 8.70719C14.8947 8.51965 15.0001 8.2653 15.0001 8.00008C15.0001 7.73486 14.8947 7.48051 14.7072 7.29297C14.5197 7.10544 14.2653 7.00008 14.0001 7.00008L13.9701 7.00208C13.8406 7.01837 13.7119 7.03972 13.5841 7.06608C13.3421 7.11508 13.0411 7.18808 12.6961 7.27908C12.0081 7.46108 11.1831 7.70708 10.3821 7.95508L10.2381 8.00008L10.3821 8.04508C11.1821 8.29308 12.0081 8.53908 12.6961 8.72108C13.0411 8.81208 13.3421 8.88508 13.5831 8.93408C13.7109 8.96044 13.8396 8.98179 13.9691 8.99808L14.0001 9.00008ZM1.93808 4.50008C1.87129 4.61602 1.82844 4.74418 1.81208 4.87697C1.79571 5.00976 1.80616 5.14449 1.84281 5.27317C1.87945 5.40185 1.94155 5.52187 2.02542 5.62612C2.10929 5.73037 2.21323 5.81673 2.33108 5.88008L2.41508 5.91508C2.48708 5.94508 2.58141 5.97941 2.69808 6.01808C2.93108 6.09608 3.22808 6.18308 3.57208 6.27608C4.34923 6.48217 5.13039 6.67287 5.91508 6.84808L6.06208 6.88108L5.95908 6.77008C5.41528 6.1785 4.85983 5.59772 4.29308 5.02808C4.07874 4.81255 3.85866 4.60281 3.63308 4.39908C3.53503 4.31247 3.43362 4.22974 3.32908 4.15108L3.30408 4.13408C3.0744 4.00148 2.80146 3.96554 2.54528 4.03418C2.28911 4.10282 2.07069 4.27041 1.93808 4.50008ZM4.13408 3.30408L4.15108 3.32908C4.22976 3.43328 4.31249 3.53436 4.39908 3.63208C4.56308 3.81608 4.77608 4.04008 5.02808 4.29308C5.59771 4.86017 6.17849 5.41595 6.77008 5.96008L6.88108 6.06208L6.84808 5.91508C6.67286 5.13072 6.48216 4.3499 6.27608 3.57308C6.18308 3.22808 6.09608 2.93108 6.01808 2.69808C5.9769 2.57399 5.93086 2.45156 5.88008 2.33108L5.86608 2.30408C5.8009 2.18944 5.71368 2.08882 5.60946 2.00801C5.50523 1.92721 5.38605 1.86782 5.25877 1.83327C5.1315 1.79872 4.99865 1.78968 4.86787 1.80668C4.73709 1.82368 4.61096 1.86638 4.49675 1.93232C4.38254 1.99826 4.2825 2.08614 4.20239 2.1909C4.12229 2.29566 4.06369 2.41524 4.02998 2.54273C3.99627 2.67023 3.98812 2.80314 4.00598 2.93381C4.02385 3.06447 4.06738 3.19031 4.13408 3.30408ZM14.0621 11.5001C14.1947 11.2704 14.2306 10.9975 14.162 10.7413C14.0933 10.4851 13.9258 10.2667 13.6961 10.1341L13.6691 10.1201C13.5486 10.0693 13.4262 10.0233 13.3021 9.98208C13.0691 9.90408 12.7721 9.81708 12.4271 9.72408C11.6503 9.518 10.8694 9.3273 10.0851 9.15208L9.93808 9.11908L10.0401 9.23008C10.5842 9.82167 11.14 10.4025 11.7071 10.9721C11.9601 11.2241 12.1841 11.4371 12.3671 11.6011C12.4651 11.6877 12.5665 11.7704 12.6711 11.8491L12.6961 11.8661C12.9258 11.9987 13.1987 12.0346 13.4549 11.966C13.7111 11.8973 13.9295 11.7298 14.0621 11.5001ZM10.1341 13.6961C10.2676 13.9239 10.4859 14.0896 10.7412 14.1571C10.9965 14.2246 11.2681 14.1884 11.4968 14.0564C11.7255 13.9243 11.8926 13.7072 11.9618 13.4523C12.031 13.1975 11.9966 12.9256 11.8661 12.6961L11.8491 12.6711C11.7704 12.5669 11.6877 12.4658 11.6011 12.3681C11.3974 12.1422 11.1876 11.9217 10.9721 11.7071C10.4025 11.14 9.82167 10.5842 9.23008 10.0401L9.11908 9.93808L9.15208 10.0851C9.3273 10.8694 9.518 11.6503 9.72408 12.4271C9.81708 12.7721 9.90408 13.0691 9.98208 13.3021C10.0233 13.4262 10.0693 13.5486 10.1201 13.6691L10.1341 13.6961ZM8.00008 9.50008C8.39791 9.50008 8.77944 9.34205 9.06074 9.06074C9.34205 8.77944 9.50008 8.39791 9.50008 8.00008C9.50008 7.60226 9.34205 7.22073 9.06074 6.93942C8.77944 6.65812 8.39791 6.50008 8.00008 6.50008C7.60226 6.50008 7.22073 6.65812 6.93942 6.93942C6.65812 7.22073 6.50008 7.60226 6.50008 8.00008C6.50008 8.39791 6.65812 8.77944 6.93942 9.06074C7.22073 9.34205 7.60226 9.50008 8.00008 9.50008Z" fill="white"/>
</g>
<defs>
<clipPath id="clip0_2007_10">
<rect width="16" height="16" fill="white"/>
</clipPath>
</defs>
</svg>
